<svg width="47" height="41" viewBox="0 0 47 41" fill="none" xmlns="http://www.w3.org/2000/svg">
<path d="M23.6199 40.1913C19.198 40.1913 14.7746 40.1897 10.3528 40.1929C9.3872 40.1929 8.43281 40.1574 7.47682 39.9508C6.29223 39.6958 5.2659 39.1711 4.33709 38.4093C3.83032 37.9944 3.33794 37.5667 2.94788 37.0275C2.00947 35.733 1.394 34.3109 1.36362 32.6951C1.32046 30.4562 1.33005 28.2174 1.32845 25.9769C1.32526 20.6178 1.32206 15.2572 1.33325 9.89811C1.33325 9.18788 1.32526 8.45827 1.47873 7.77225C1.87679 5.99666 2.79281 4.50516 4.19481 3.34941C5.17958 2.53748 6.28264 1.92248 7.54396 1.68681C8.26015 1.55284 8.99713 1.46567 9.72611 1.46244C14.2087 1.44307 18.6913 1.45276 23.1739 1.45276C25.8708 1.45276 28.5677 1.435 31.2646 1.45921C32.9767 1.47536 34.5881 1.8563 36.0397 2.85386C37.4689 3.83528 38.4489 5.1363 39.0883 6.73756C39.3729 7.45264 39.504 8.19193 39.5647 8.95059C39.5999 9.3961 39.6782 9.46874 40.1067 9.51233C41.7389 9.67858 43.1409 10.3372 44.2663 11.5478C45.0752 12.4178 45.6411 13.438 45.8474 14.6163C45.9928 15.446 46.0904 16.287 46.0872 17.1409C46.0712 21.9431 46.0936 26.7436 46.0712 31.5458C46.0648 32.8387 45.8713 34.1156 45.3438 35.3181C44.447 37.3649 42.9203 38.7547 40.906 39.6183C40.5559 39.7684 40.1706 39.8394 39.7965 39.9217C39.3617 40.0186 38.9221 40.0928 38.484 40.1655C38.321 40.1929 38.1515 40.1913 37.9869 40.1913C33.1973 40.1913 28.4094 40.1913 23.6199 40.1913ZM23.6598 36.9646V36.9613C28.3359 36.9613 33.0119 36.963 37.6879 36.9581C38.281 36.9581 38.8661 36.8935 39.4416 36.7241C40.6678 36.3609 41.5806 35.6087 42.2105 34.503C42.6213 33.7814 42.8595 33.005 42.8403 32.1608C42.8371 31.9994 42.8435 31.838 42.8435 31.6765C42.8435 26.7404 42.8435 21.8026 42.8435 16.8665C42.8435 16.5114 42.8195 16.1546 42.81 15.7995C42.77 14.3339 41.5678 13.0522 40.1562 12.8537C39.6926 12.7891 39.6095 12.8472 39.6095 13.3234C39.6095 18.6163 39.6095 23.9091 39.6063 29.202C39.6063 29.6395 39.6143 30.0769 39.5951 30.5127C39.5615 31.2552 39.2642 31.7201 38.4585 32.0284C37.5888 32.3593 36.4969 31.5506 36.4602 30.5837C36.4522 30.3884 36.4602 30.1931 36.4602 29.9994C36.4602 23.3813 36.4602 16.7632 36.4634 10.1451C36.4634 9.00709 36.3195 7.91752 35.688 6.92803C35.1221 6.04185 34.3611 5.41878 33.4147 5.00717C32.8456 4.7602 32.2413 4.72307 31.6323 4.72307C28.2959 4.72307 24.9579 4.71984 21.6216 4.71984C17.3516 4.71984 13.0817 4.72469 8.81328 4.73114C8.58148 4.73114 8.34169 4.74406 8.11947 4.80217C7.16828 5.05236 6.34818 5.53662 5.70553 6.29205C4.95737 7.17177 4.47777 8.17256 4.47777 9.36221C4.47777 16.9359 4.47777 24.508 4.47618 32.0817C4.47618 32.9921 4.6856 33.846 5.16359 34.6111C5.62879 35.3569 6.2107 35.9848 7.026 36.3835C7.91485 36.8193 8.85005 36.9613 9.81563 36.963C14.4325 36.9678 19.0478 36.9646 23.6646 36.9646H23.6598Z" fill="#FFD277"/>
<path d="M9.31362 14.2741C9.31362 13.2798 9.30084 12.2839 9.32162 11.2895C9.32801 11.0022 9.37917 10.6939 9.49427 10.434C9.77883 9.78834 10.3575 9.54138 11.0066 9.53331C12.9969 9.51071 14.9888 9.51878 16.9807 9.53169C17.3756 9.53492 17.7752 9.58819 18.1253 9.82547C18.5346 10.1031 18.7584 10.4873 18.8175 10.9731C18.8447 11.1991 18.8607 11.4283 18.8623 11.6559C18.8655 13.5122 18.8719 15.3685 18.8559 17.2232C18.8527 17.5654 18.8111 17.9335 18.6833 18.245C18.4019 18.9246 17.8104 19.1618 17.1198 19.1974C17.0335 19.2022 16.9471 19.2054 16.8608 19.2054C14.9632 19.2054 13.064 19.2167 11.1664 19.1957C10.8243 19.1925 10.4583 19.1102 10.1465 18.9698C9.57261 18.7115 9.33281 18.1837 9.32162 17.5783C9.29924 16.4759 9.31522 15.3734 9.31522 14.2725L9.31362 14.2741Z" fill="#FFD277"/>
<path d="M20.3986 28.8953C23.4808 28.8953 26.5645 28.8921 29.6467 28.8985C30.1183 28.8985 30.5899 28.9421 30.9912 29.252C31.4612 29.6152 31.661 30.1011 31.6035 30.6806C31.5379 31.3472 31.1606 31.7992 30.5324 31.9961C30.2462 32.0865 29.9297 32.1156 29.6275 32.1156C23.4744 32.122 17.3228 32.1237 11.1696 32.1107C10.8275 32.1107 10.4534 32.0381 10.1497 31.8864C9.50226 31.5619 9.25767 30.9695 9.35998 30.2141C9.4543 29.52 9.99784 29.0664 10.6741 28.9405C10.8371 28.9098 11.005 28.8969 11.1696 28.8969C14.2454 28.8937 17.3228 28.8953 20.3986 28.8953Z" fill="#FFD277"/>
<path d="M20.4178 22.4386C23.4936 22.4386 26.571 22.4354 29.6468 22.4418C30.1184 22.4418 30.59 22.4854 30.9912 22.7954C31.4692 23.1634 31.6674 23.6557 31.6019 24.2416C31.5284 24.897 31.1543 25.3457 30.534 25.5378C30.2399 25.6282 29.9185 25.6573 29.6084 25.6573C23.4632 25.6637 17.3165 25.6637 11.1713 25.6573C10.7604 25.6573 10.3496 25.5927 9.99149 25.3474C9.60941 25.0842 9.39999 24.7194 9.35203 24.261C9.22574 23.0714 10.0698 22.4467 11.0882 22.4402C12.9793 22.4289 14.8705 22.437 16.7617 22.437C17.9799 22.437 19.1981 22.437 20.4178 22.437V22.4386Z" fill="#FFD277"/>
<path d="M26.8907 12.7504C25.9188 12.7504 24.9452 12.7617 23.9732 12.7455C23.548 12.7374 23.1195 12.6874 22.7583 12.4195C22.2803 12.0643 22.0612 11.5817 22.1172 10.9861C22.2115 9.97559 23.0252 9.53815 23.8102 9.5317C25.8021 9.51555 27.7924 9.51878 29.7843 9.5317C30.1727 9.53492 30.5676 9.58496 30.9081 9.82386C31.5108 10.2468 31.7314 10.8618 31.5444 11.6269C31.4101 12.1757 30.8298 12.6648 30.1823 12.7035C29.4725 12.7455 28.7595 12.7391 28.0466 12.7504C27.6597 12.7552 27.2744 12.7504 26.8875 12.7504H26.8907Z" fill="#FFD277"/>
<path d="M26.8828 19.207C25.9172 19.207 24.9516 19.2183 23.986 19.2022C23.5608 19.1957 23.1307 19.1473 22.7695 18.881C22.2787 18.5194 22.0581 18.0287 22.122 17.4137C22.2275 16.3822 23.1164 15.9819 23.8997 15.9803C25.7445 15.9803 27.5893 15.9755 29.4342 15.9835C29.7379 15.9835 30.0449 16.0142 30.347 16.061C31.0696 16.174 31.5827 16.7713 31.6147 17.5525C31.6451 18.2821 31.1991 18.8987 30.5085 19.0908C30.2239 19.1699 29.9186 19.1974 29.6212 19.2006C28.7084 19.2135 27.7972 19.2054 26.8843 19.2054L26.8828 19.207Z" fill="#FFD277"/>
</svg>
