<svg width="464" height="162" viewBox="0 0 464 162" fill="none" xmlns="http://www.w3.org/2000/svg">
<path d="M64.01 130.424C66.1 124.224 68.1 118.324 70.08 112.424C70.9 109.984 72.39 107.534 72.33 105.114C72.26 102.814 70.54 100.574 69.58 98.2943C58.15 71.0343 73.42 40.1643 102.07 32.5943C129.43 25.3643 157.48 43.4943 162.09 71.3943C166.52 98.1943 148.48 123.234 121.64 127.354C111.39 128.924 101.54 127.374 92.27 122.594C91.28 122.084 90.43 122.004 89.34 122.364C81.48 124.944 73.6 127.434 65.73 129.944C65.27 130.094 64.8 130.204 64 130.424H64.01ZM76.28 118.394C77.19 118.134 77.8 117.974 78.41 117.774C82.37 116.504 86.35 115.274 90.29 113.944C91.37 113.584 92.2 113.674 93.19 114.264C101.05 118.994 109.55 120.874 118.71 119.944C141.23 117.654 157.78 96.6843 154.75 74.1843C151.14 47.3343 122.9 31.3743 98.04 42.1443C74.73 52.2443 66.3 80.8843 80.43 102.084C81.04 103.004 81.19 103.744 80.82 104.794C79.55 108.344 78.38 111.934 77.18 115.514C76.89 116.374 76.64 117.244 76.29 118.394H76.28Z" fill="#FFD277"/>
<path d="M177.75 65.7843C180.13 65.7843 182.26 65.7143 184.38 65.8443C184.78 65.8643 185.35 66.5943 185.47 67.0843C187.18 74.1543 188.82 81.2343 190.55 88.6243C190.79 88.0743 190.97 87.7943 191.05 87.4843C192.8 80.7043 194.56 73.9343 196.24 67.1443C196.5 66.0743 196.93 65.7043 198 65.7643C199.8 65.8643 202.1 65.1943 203.27 66.0743C204.41 66.9343 204.45 69.3143 204.89 71.0443C206.37 76.8643 207.81 82.6843 209.61 88.5643C209.77 87.9843 209.95 87.4043 210.09 86.8243C211.65 80.2843 213.22 73.7443 214.72 67.1943C214.98 66.0643 215.45 65.6943 216.6 65.7543C218.45 65.8543 220.31 65.7843 222.42 65.7843C219.35 77.2043 216.33 88.4143 213.29 99.6943H205.84C203.96 92.1843 202.07 84.6143 200.17 77.0543C200.08 77.0443 199.99 77.0343 199.9 77.0243C198.04 84.5843 196.17 92.1543 194.29 99.7943C192.01 99.7943 189.82 99.8343 187.63 99.7543C187.24 99.7443 186.62 99.2743 186.52 98.9143C183.59 87.9943 180.7 77.0543 177.73 65.8043L177.75 65.7843Z" fill="#FFD277"/>
<path d="M314.3 99.7844C316.4 94.2544 318.38 89.0544 320.35 83.8544C322.46 78.2844 324.6 72.7244 326.64 67.1344C327.03 66.0644 327.56 65.7044 328.67 65.7644C330.36 65.8544 332.07 65.7144 333.76 65.8344C334.26 65.8644 335.01 66.3244 335.17 66.7644C339.26 77.5444 343.3 88.3444 347.33 99.1444C347.38 99.2844 347.33 99.4644 347.33 99.7944C345.03 99.7944 342.75 99.8344 340.47 99.7444C340.12 99.7344 339.64 99.1444 339.48 98.7244C338.8 96.9444 338.15 95.1344 337.61 93.3044C337.36 92.4544 336.93 92.2144 336.09 92.2244C332.58 92.2644 329.07 92.2744 325.57 92.2244C324.67 92.2144 324.33 92.5944 324.08 93.3544C323.5 95.1244 322.84 96.8544 322.27 98.6244C322 99.4544 321.62 99.8744 320.65 99.8344C318.64 99.7544 316.62 99.8044 314.3 99.8044V99.7844ZM331.12 74.5644C331 74.5644 330.87 74.5644 330.75 74.5644C329.35 78.5244 327.94 82.4844 326.49 86.5744H335.26C333.86 82.5044 332.49 78.5244 331.12 74.5544V74.5644Z" fill="#FFD277"/>
<path d="M355.34 97.0444V108.274H348.77V75.2544H354.95C354.99 76.0944 355.04 76.9444 355.07 77.6344C356.58 76.7244 358.02 75.4744 359.69 74.9344C364.92 73.2644 370.27 75.8644 372.39 80.9644C374.09 85.0644 374.22 89.3044 372.67 93.4744C369.95 100.774 361.54 102.634 355.88 97.2444C355.81 97.1744 355.69 97.1644 355.34 97.0244V97.0444ZM367.11 87.3044C366.74 85.9044 366.5 84.2044 365.86 82.6744C364.97 80.5744 363.19 79.5444 360.87 79.6044C358.48 79.6544 356.78 80.8344 355.95 83.0444C354.85 85.9544 354.84 88.9544 355.95 91.8644C356.84 94.2044 358.69 95.3344 361.2 95.2944C363.66 95.2544 365.47 94.0244 366.26 91.6144C366.68 90.3344 366.8 88.9544 367.11 87.2944V87.3044Z" fill="#FFD277"/>
<path d="M382.38 96.8144V108.244H375.73V75.2544H381.94C381.98 76.1044 382.02 76.9544 382.06 77.6344C383.56 76.7344 385 75.4744 386.66 74.9444C392.24 73.1844 397.81 76.2044 399.72 81.8644C400.83 85.1444 400.95 88.4944 400.14 91.8844C397.93 101.224 387.37 102.774 382.38 96.8044V96.8144ZM394.1 87.4044C393.72 85.9444 393.48 84.1944 392.81 82.6244C391.92 80.5244 390.11 79.5244 387.79 79.5944C385.47 79.6644 383.8 80.7944 382.96 82.9344C381.8 85.8944 381.79 88.9344 382.93 91.9044C383.83 94.2344 385.68 95.3344 388.21 95.2844C390.61 95.2344 392.38 94.0444 393.18 91.7144C393.61 90.4344 393.75 89.0644 394.09 87.4044H394.1Z" fill="#FFD277"/>
<path d="M230.75 99.7043H224.06V65.8943H230.71V78.3944C231.14 78.0144 231.33 77.8844 231.49 77.7144C234.41 74.3944 239.04 73.4943 243.01 75.4743C245.21 76.5743 246.55 78.4343 246.67 80.7743C246.99 87.0443 247.05 93.3243 247.22 99.6943H240.35C240.35 98.9943 240.35 98.3643 240.35 97.7243C240.29 93.1243 240.35 88.5243 240.12 83.9343C239.98 81.1343 238.71 79.9844 236.35 79.8244C233.54 79.6344 231.7 80.8444 231.14 83.4944C230.84 84.9244 230.79 86.4244 230.77 87.8944C230.72 91.7744 230.75 95.6543 230.75 99.7043Z" fill="#FFD277"/>
<path d="M257.4 82.6544H250.81C250.93 79.3944 252.53 77.1344 255.34 75.9044C259.85 73.9244 264.53 73.9644 269.12 75.6244C271.8 76.5844 273.12 78.6644 273.12 81.6044C273.12 86.6944 273.21 91.7844 273.31 96.8744C273.33 97.7944 273.58 98.7044 273.73 99.7044H267.15C266.97 99.0344 266.79 98.3744 266.57 97.5844C263.48 100.134 259.96 100.744 256.18 100.184C252.47 99.6244 250.17 97.1744 249.98 93.6344C249.78 89.7844 251.54 87.2344 255.34 86.2744C257.61 85.7044 259.97 85.4644 262.29 85.0644C263.04 84.9344 263.81 84.8144 264.53 84.5844C265.59 84.2444 266.39 83.6244 266.38 82.3744C266.37 81.0744 265.93 80.0244 264.66 79.4544C261.49 78.0144 258.45 79.3544 257.39 82.6744L257.4 82.6544ZM266.37 88.0644C264.95 88.3644 263.63 88.6444 262.31 88.9344C261.09 89.2044 259.82 89.3644 258.66 89.8044C257.14 90.3844 256.64 91.6744 256.82 93.2644C256.98 94.7644 257.97 95.4244 259.28 95.7444C263.3 96.7244 266.12 94.6544 266.36 90.5344C266.41 89.7244 266.36 88.9144 266.36 88.0544L266.37 88.0644Z" fill="#FFD277"/>
<path d="M291.24 91.8244H297.76C298.76 95.6544 302.01 96.5844 305.53 95.4744C306.73 95.0944 307.62 94.2544 307.61 92.8244C307.61 91.4844 306.71 90.8544 305.62 90.5244C303.42 89.8644 301.19 89.3144 298.97 88.6944C298.07 88.4444 297.17 88.2044 296.31 87.8644C294.01 86.9644 292.34 85.4644 292.18 82.8444C292 80.0844 292.82 77.5644 295.36 76.2744C300.23 73.7844 305.29 73.6944 310.18 76.2644C312.44 77.4544 313.55 79.5844 313.66 82.2844H307.51C306.36 79.3844 303.36 78.0944 300.46 79.3944C299.83 79.6744 299.12 80.5044 299.07 81.1344C299.02 81.7644 299.58 82.8244 300.15 83.0644C301.79 83.7744 303.56 84.1844 305.29 84.6844C306.87 85.1444 308.5 85.4344 310.02 86.0344C314.55 87.8144 315.86 92.8144 312.9 96.6844C308.94 101.864 296.69 101.664 293.04 96.2744C292.23 95.0744 291.91 93.5344 291.23 91.8244H291.24Z" fill="#FFD277"/>
<path d="M290.69 75.1344V79.6644H285.86C285.86 84.2344 285.8 88.5944 285.94 92.9544C285.96 93.5244 286.93 94.3444 287.61 94.5544C288.5 94.8344 289.55 94.6244 290.64 94.6244V99.7744C287.7 100.024 284.72 100.374 281.84 99.1944C279.6 98.2744 279 96.3044 278.99 94.0944C278.97 89.9844 278.99 85.8844 278.99 81.7744C278.99 81.1744 278.99 80.5844 278.99 79.8044H275.08V75.2244H278.99V67.9244H285.8V75.1444H290.69V75.1344Z" fill="#FFD277"/>
<path d="M90.24 68.6644C90.68 64.8744 91.95 61.7144 94.56 59.0944C96.5 57.1444 98.91 57.1944 101.32 57.6244C101.87 57.7244 102.46 58.4944 102.73 59.0944C104.1 62.1944 105.48 65.3044 106.62 68.4944C106.91 69.3044 106.59 70.5444 106.14 71.3444C105.5 72.4644 104.48 73.3744 103.61 74.3544C102.87 75.1844 102.71 76.0244 103.33 77.0344C107.13 83.3144 112.26 88.0644 119.13 90.8444C120.59 91.4344 121.8 91.2144 122.76 89.9144C123.61 88.7644 124.48 87.6444 125.3 86.4744C126.15 85.2644 127.26 84.8644 128.59 85.4744C131.72 86.9244 134.81 88.4544 137.92 89.9444C139.13 90.5244 139.05 91.5744 138.95 92.6244C138.36 98.4944 133.11 102.824 126.98 102.184C120.94 101.544 115.39 99.2744 110.35 95.9844C102.56 90.9044 96.68 84.0244 92.47 75.7844C91.35 73.6044 90.98 71.0344 90.26 68.6544L90.24 68.6644Z" fill="#FFD277"/>
<rect x="1.5" y="1.5" width="461" height="159" rx="18.5" stroke="#FFD277" stroke-width="3"/>
</svg>
